<svg width="1488" height="1259" viewBox="0 0 1488 1259" fill="none" xmlns="http://www.w3.org/2000/svg">
<mask id="mask0_63568_5323" style="mask-type:alpha" maskUnits="userSpaceOnUse" x="0" y="0" width="1488" height="1259">
<path d="M0 0H1488V978L395.5 1259L0 0Z" fill="#D9D9D9"/>
</mask>
<g mask="url(#mask0_63568_5323)">
<path opacity="0.2" fill-rule="evenodd" clip-rule="evenodd" d="M2072.92 -666C768.068 -666 10.066 532.172 464.507 906.037C842.064 1216.33 1745.53 920.124 1745.53 920.124C1745.53 920.124 795.14 1271.23 436.352 1740.1C249.017 1984.64 381.126 2320.58 554.023 2527.92C575.68 2553.57 597.698 2578.85 620.438 2603.42C980.67 2992.81 1498.28 3237 2073.28 3237C3161.19 3237 4043 2363.2 4043 1285.32C4043 207.434 3160.83 -666 2072.92 -666ZM1476.62 725.426C939.521 725.426 814.992 299.545 1068.38 -28.4438C1275.93 -296.832 1786.68 -480.693 2109.01 -467.328C2793.38 -438.792 3103.8 159.391 3121.12 183.232C3138.45 207.073 1936.11 725.426 1476.62 725.426ZM3230.85 2185.48C3104.88 2443.76 2868.46 2786.2 2338.22 2881.2C1988.81 2943.69 1655.29 2851.22 1394.68 2718.29C1101.59 2568.74 817.519 2267.12 905.592 1962.61C964.427 1758.52 1230.45 1538.17 1543.04 1325.42C1890.63 1088.81 3229.77 418.387 3229.77 418.387C3229.77 418.387 3410.61 768.411 3410.61 1430.17C3410.61 1611.14 3368.38 1903.73 3231.22 2185.48H3230.85Z" fill="url(#paint0_linear_63568_5323)"/>
</g>
<defs>
<linearGradient id="paint0_linear_63568_5323" x1="332" y1="1285.5" x2="4043" y2="1285.5" gradientUnits="userSpaceOnUse">
<stop stop-color="#60102E" stop-opacity="0"/>
<stop offset="0.442308" stop-color="#60102E"/>
</linearGradient>
</defs>
</svg>
